<svg width="58" height="58" viewBox="0 0 58 58" fill="none" xmlns="http://www.w3.org/2000/svg">
<g filter="url(#filter0_d)">
<path d="M40.4845 33.8997H42.7481C43.9597 33.8997 44.9454 32.9139 44.9454 31.7024V26.7833C44.9454 25.5718 43.9597 24.5861 42.7481 24.5861H41.7971V19.9028C41.7971 19.8944 41.7975 19.886 41.7975 19.8776C41.7975 19.8688 41.7971 19.8608 41.7971 19.8524V18.6409C41.7971 17.4289 40.8114 16.4436 39.5999 16.4436H36.4417C36.0369 16.4436 35.7093 16.7713 35.7093 17.176C35.7093 17.5804 36.0369 17.9084 36.4417 17.9084H39.5999C40.0035 17.9084 40.3323 18.2369 40.3323 18.6409V19.1452H31.3361V18.6409C31.3361 18.2369 31.6645 17.9084 32.0685 17.9084H33.4056C33.8099 17.9084 34.138 17.5804 34.138 17.176C34.138 16.7713 33.8099 16.4436 33.4056 16.4436H32.0685C30.857 16.4436 29.8712 17.4289 29.8712 18.6409V21.4729H28.1291V18.6409C28.1291 17.4289 27.1434 16.4436 25.9318 16.4436H18.4005C17.1889 16.4436 16.2032 17.4289 16.2032 18.6409V19.8524C16.2028 19.8608 16.2028 19.8688 16.2028 19.8776C16.2028 19.886 16.2028 19.8944 16.2032 19.9028V24.5861H12.8829C11.6713 24.5861 10.6856 25.5718 10.6856 26.7833V30.3009C10.6856 30.7056 11.0137 31.0333 11.418 31.0333C11.8228 31.0333 12.1505 30.7056 12.1505 30.3009V28.8078H19.3515C18.1487 30.6301 17.4483 32.8117 17.4483 35.1539C17.4483 36.684 17.7474 38.1458 18.2902 39.4836H12.8829C12.4789 39.4836 12.1505 39.1548 12.1505 38.7512V33.3381C12.1505 32.9334 11.8228 32.6057 11.418 32.6057C11.0137 32.6057 10.6856 32.9334 10.6856 33.3381V38.7512C10.6856 39.9627 11.6713 40.9485 12.8829 40.9485H19.0093C19.0524 41.0221 19.0963 41.0957 19.1405 41.1686L18.1224 44.7128C17.9854 45.1889 18.0777 45.6886 18.3757 46.0838C18.6732 46.4794 19.1279 46.706 19.6231 46.706C20.1705 46.706 20.6847 46.4138 20.9635 45.9449L21.9474 44.2974C23.8997 45.8069 26.3468 46.706 29 46.706C31.6531 46.706 34.1002 45.8069 36.0526 44.2974L37.0356 45.9438C37.3152 46.4142 37.8291 46.706 38.3769 46.706C38.8716 46.706 39.3267 46.4794 39.6243 46.0842C39.9218 45.6886 40.0145 45.1889 39.8776 44.7128L38.8594 41.1686C39.9329 39.4157 40.552 37.3558 40.552 35.1539C40.552 34.7301 40.5291 34.3116 40.4845 33.8997ZM42.7481 32.4348H40.2289C39.9119 31.1248 39.3706 29.9019 38.6489 28.8078H43.4806V31.7024C43.4806 32.1064 43.1521 32.4348 42.7481 32.4348ZM43.4806 26.7833V27.343H37.5041C37.395 27.2243 37.2836 27.1084 37.1699 26.9943H39.5999C40.3456 26.9943 41.006 26.6208 41.4031 26.0509H42.7481C43.1521 26.0509 43.4806 26.3797 43.4806 26.7833ZM31.3361 20.61H40.3319V24.797C40.3319 25.201 40.0035 25.5294 39.5995 25.5294H35.3827C34.1738 24.7249 32.8055 24.142 31.3361 23.8392V22.9377H33.4204C33.8248 22.9377 34.1529 22.6097 34.1529 22.2053C34.1529 21.8006 33.8248 21.4729 33.4204 21.4729H31.3361V20.61ZM29.8712 22.9377V23.6343C29.5836 23.6129 29.2933 23.6019 29.0004 23.6019C28.707 23.6019 28.4167 23.6129 28.1291 23.6343V22.9377H29.8712ZM24.5799 22.9377H26.6642V23.8392C25.1948 24.1424 23.8265 24.7253 22.6176 25.5294H18.4005C17.9965 25.5294 17.668 25.201 17.668 24.797V20.61H26.6642V21.4729H24.5799C24.1755 21.4729 23.8475 21.8006 23.8475 22.2053C23.8475 22.6097 24.1755 22.9377 24.5799 22.9377ZM18.4005 17.9084H25.9318C26.3358 17.9084 26.6642 18.2369 26.6642 18.6409V19.1452H17.668V18.6409C17.668 18.2369 17.9965 17.9084 18.4005 17.9084ZM12.1505 27.343V26.7833C12.1505 26.3794 12.4789 26.0509 12.8829 26.0509H16.5972C16.9944 26.6208 17.6547 26.9943 18.4005 26.9943H20.8304C20.7167 27.1084 20.6053 27.2243 20.4962 27.343H12.1505ZM19.7055 45.195C19.6723 45.2507 19.5853 45.2552 19.546 45.203C19.5266 45.177 19.5212 45.1484 19.5304 45.1175L20.2338 42.6693C20.4241 42.8913 20.6229 43.1057 20.8297 43.3124L19.7055 45.195ZM38.47 45.1175C38.4787 45.1484 38.4734 45.1774 38.4543 45.203C38.415 45.2552 38.3284 45.2518 38.2941 45.1942L37.1707 43.3128C37.3774 43.106 37.5762 42.8913 37.7665 42.6693L38.47 45.1175ZM29.0004 45.2411C23.4381 45.2411 18.9131 40.7161 18.9131 35.1539C18.9131 29.591 23.4393 25.0667 29.0004 25.0667C34.5534 25.0667 39.0876 29.5826 39.0876 35.1539C39.0872 40.7161 34.5622 45.2411 29.0004 45.2411Z" fill="#FE8D08"/>
<path d="M9.16447 39.1532V20.5539C9.16447 19.9653 9.32011 19.3847 9.61498 18.8743L14.8835 9.74877L15.5335 10.1241C15.8837 10.3263 16.3315 10.2062 16.5337 9.85596C16.7359 9.50577 16.6161 9.05793 16.2659 8.85537L14.9933 8.12104C14.9895 8.11837 14.9857 8.11608 14.9815 8.11417C14.9777 8.11188 14.9739 8.10959 14.9701 8.10769L9.94457 5.20585C9.85798 5.15587 9.82632 5.07882 9.81487 5.03724C9.80381 4.99566 9.79275 4.91288 9.84272 4.82628C9.9194 4.69315 10.0899 4.64776 10.2227 4.72443L13.9931 6.90148C14.3113 7.08497 14.7156 7.00486 14.9395 6.7138C15.1657 6.41968 15.5785 6.33805 15.9001 6.52344C16.2213 6.70922 16.3567 7.10747 16.2152 7.45041C16.0752 7.78954 16.2083 8.18017 16.5261 8.36365L20.2965 10.5407C20.3835 10.5907 20.4148 10.6677 20.4262 10.7097C20.4373 10.7509 20.4483 10.8337 20.3984 10.9206C20.3213 11.0534 20.1512 11.0988 20.0184 11.0221L19.048 10.4617C18.6978 10.2596 18.2499 10.3797 18.0474 10.7299C17.8452 11.0801 17.9654 11.5283 18.3155 11.7305L19.286 12.2909C19.5599 12.4488 19.859 12.524 20.1546 12.524C20.7573 12.524 21.3444 12.2112 21.6668 11.6531C21.8998 11.2499 21.9616 10.7799 21.8411 10.3305C21.7205 9.88076 21.4322 9.50501 21.0289 9.27193L17.7266 7.36535C17.7788 6.77331 17.5885 6.18126 17.2039 5.73037L17.4717 5.26688C17.6739 4.91631 17.5538 4.46846 17.2032 4.26629C16.8526 4.06411 16.4051 4.18427 16.203 4.53446L15.9356 4.99794C15.3527 4.88999 14.7442 5.02121 14.2575 5.36263L10.9551 3.45566C10.1227 2.97539 9.0546 3.26149 8.57433 4.09386C8.34126 4.49708 8.27946 4.96666 8.40038 5.41642C8.52055 5.86579 8.80894 6.24192 9.21215 6.47461L13.6151 9.01635L8.3466 18.1415C7.92317 18.8743 7.69962 19.7086 7.69962 20.5539V39.1555L4.09321 45.6165C3.89599 45.9697 4.02264 46.416 4.37588 46.6129C4.48879 46.6762 4.61125 46.7059 4.73217 46.7059C4.9889 46.7059 5.238 46.5709 5.37228 46.3306L8.43243 40.8477L11.493 46.3306C11.6902 46.6838 12.1361 46.8105 12.4894 46.6132C12.8426 46.416 12.9689 45.9697 12.772 45.6165L9.16447 39.1532Z" fill="#FE8D08"/>
<path d="M52.257 11.7882H48.4438C48.1928 11.2492 47.7316 10.8315 47.1728 10.6335V10.0979C47.1728 9.69354 46.8451 9.36548 46.4404 9.36548C46.0356 9.36548 45.7079 9.69354 45.7079 10.0979V10.6339C45.1495 10.8318 44.6886 11.2496 44.4376 11.7882H40.6245C39.6635 11.7882 38.8815 12.5702 38.8815 13.5311C38.8815 14.492 39.6635 15.2741 40.6245 15.2741H45.7079V39.1552L42.1015 45.6165C41.9043 45.9698 42.0306 46.4161 42.3838 46.6129C42.737 46.8102 43.1834 46.6839 43.3806 46.3303L46.4407 40.8474L49.5013 46.3303C49.6352 46.5706 49.8846 46.706 50.1414 46.706C50.2623 46.706 50.3848 46.6759 50.4977 46.6129C50.8509 46.4157 50.9772 45.9698 50.7803 45.6165L47.1728 39.1533V15.2741H52.257C53.2183 15.2741 53.9999 14.4924 53.9999 13.5311C53.9999 12.5702 53.2183 11.7882 52.257 11.7882ZM52.257 13.8092H46.4644C46.4564 13.8088 46.4484 13.8088 46.4404 13.8088C46.4323 13.8088 46.4243 13.8092 46.4163 13.8092H40.6245C40.4715 13.8092 40.3468 13.6845 40.3468 13.5311C40.3468 13.3778 40.4711 13.2534 40.6245 13.2534H44.9786C45.3455 13.2534 45.6561 12.9814 45.7045 12.6175C45.7529 12.254 46.0631 11.9789 46.4289 11.9728H46.4404H46.4526C46.8184 11.9785 47.1289 12.2536 47.1774 12.6175C47.2258 12.9814 47.5363 13.253 47.9033 13.253H52.2574C52.4104 13.253 52.5351 13.3778 52.5351 13.5311C52.5351 13.6845 52.4104 13.8092 52.257 13.8092Z" fill="#FE8D08"/>
</g>
<defs>
<filter id="filter0_d" x="0" y="0" width="58" height="58" filterUnits="userSpaceOnUse" color-interpolation-filters="sRGB">
<feFlood flood-opacity="0" result="BackgroundImageFix"/>
<feColorMatrix in="SourceAlpha" type="matrix" values="0 0 0 0 0 0 0 0 0 0 0 0 0 0 0 0 0 0 127 0"/>
<feOffset dy="4"/>
<feGaussianBlur stdDeviation="2"/>
<feColorMatrix type="matrix" values="0 0 0 0 0.6875 0 0 0 0 0.6875 0 0 0 0 0.6875 0 0 0 0.25 0"/>
<feBlend mode="normal" in2="BackgroundImageFix" result="effect1_dropShadow"/>
<feBlend mode="normal" in="SourceGraphic" in2="effect1_dropShadow" result="shape"/>
</filter>
</defs>
</svg>
